<svg width="88" height="88" viewBox="0 0 88 88" fill="none" xmlns="http://www.w3.org/2000/svg">
<circle opacity="0.1" cx="44" cy="44" r="44" fill="#8FA632"/>
<path d="M24.9426 28.136C24.52 27.2625 24.8854 26.2118 25.759 25.7893C26.0441 25.6514 26.3477 25.5988 26.6426 25.619C26.9207 25.0007 27.409 24.473 28.0669 24.1546C29.5541 23.4351 31.3431 24.0575 32.0627 25.5447C32.2366 25.9042 32.3315 26.2813 32.3552 26.6566C33.0191 26.6345 33.6652 26.9961 33.9732 27.6325C34.3898 28.4936 34.0296 29.5292 33.1684 29.9459C32.3864 30.3242 31.4619 30.0602 30.9864 29.3638C30.8865 29.4279 30.7822 29.4873 30.6727 29.5404C29.4969 30.1092 28.133 29.8388 27.2575 28.9658C26.3905 29.3647 25.3602 28.9989 24.9426 28.136Z" fill="url(#paint0_linear_15709_4)"/>
<path d="M25.3844 24.9367C26.1953 24.9367 26.8527 24.2793 26.8527 23.4684C26.8527 22.6574 26.1953 22 25.3844 22C24.5734 22 23.916 22.6574 23.916 23.4684C23.916 24.2793 24.5734 24.9367 25.3844 24.9367Z" fill="url(#paint1_linear_15709_4)"/>
<path d="M34.1075 36.7783H30.566C30.0649 36.7783 29.6586 36.372 29.6586 35.8708V30.222C29.6586 29.7208 30.0649 29.3146 30.566 29.3146H34.1075C34.6087 29.3146 35.0149 29.7208 35.0149 30.222V35.8708C35.015 36.372 34.6088 36.7783 34.1075 36.7783Z" fill="url(#paint2_linear_15709_4)"/>
<path d="M32.9855 52.885H22.4101V66.4568H32.9855V52.885Z" fill="url(#paint3_linear_15709_4)"/>
<path d="M33.4261 55.7929H22.4338C21.9834 55.7929 21.6609 55.358 21.7916 54.9269L22.8824 51.3338C22.9683 51.051 23.229 50.8578 23.5246 50.8578H33.4262V55.7929H33.4261Z" fill="url(#paint4_linear_15709_4)"/>
<path d="M64.5355 52.885H53.9601V66.4568H64.5355V52.885Z" fill="url(#paint5_linear_15709_4)"/>
<path d="M64.5354 62.901L57.4301 55.7955H53.9601V66.4565H64.5354V62.901Z" fill="url(#paint6_linear_15709_4)"/>
<path d="M53.5194 55.7929H64.5117C64.9621 55.7929 65.2846 55.358 65.1539 54.9269L64.0631 51.3338C63.9772 51.051 63.7165 50.8578 63.4209 50.8578H53.5194V55.7929Z" fill="url(#paint7_linear_15709_4)"/>
<path d="M57.4358 38.3768V66.4562H29.5132V38.3768L43.4727 24.6904L57.4358 38.3768Z" fill="url(#paint8_linear_15709_4)"/>
<path d="M29.5132 38.3768V39.9855L55.9839 66.4562H57.4358V38.3768L43.4727 24.6904L29.5132 38.3768Z" fill="url(#paint9_linear_15709_4)"/>
<path d="M57.4358 46.863V66.4565H48.6203L29.5132 47.3494V46.863H57.4358Z" fill="url(#paint10_linear_15709_4)"/>
<path d="M53.1214 66.4564H39.4653L31.9585 58.9497C31.628 58.7354 31.4081 58.3636 31.4081 57.9419V51.9001C31.4081 51.2382 31.947 50.6993 32.6089 50.6993H36.9647C37.3874 50.6993 37.7592 50.9193 37.9734 51.2497L37.9408 51.2756L53.1214 66.4564Z" fill="url(#paint11_linear_15709_4)"/>
<path d="M36.9647 58.4388H32.6093C32.3346 58.4388 32.112 58.2162 32.112 57.9415V51.9006C32.112 51.6259 32.3347 51.4033 32.6093 51.4033H36.9647C37.2394 51.4033 37.462 51.626 37.462 51.9006V57.9415C37.4621 58.2162 37.2394 58.4388 36.9647 58.4388Z" fill="#503837"/>
<path d="M36.9647 59.1428H32.6093C31.947 59.1428 31.4081 58.6039 31.4081 57.9416V51.9007C31.4081 51.2384 31.947 50.6995 32.6093 50.6995H36.9647C37.627 50.6995 38.1659 51.2384 38.1659 51.9007V57.9416C38.166 58.6039 37.6271 59.1428 36.9647 59.1428ZM32.816 57.7348H36.7581V52.1073H32.816V57.7348Z" fill="white"/>
<path d="M57.4368 53.1914V66.4564H57.0083L49.5015 58.9497C49.17 58.7354 48.95 58.3636 48.95 57.9419V51.9001C48.95 51.2382 49.489 50.6993 50.1518 50.6993H54.5066C54.9293 50.6993 55.3011 50.9193 55.5153 51.2497L55.5326 51.2633L55.521 51.2758L57.4368 53.1914Z" fill="url(#paint12_linear_15709_4)"/>
<path d="M54.507 58.4388H50.1516C49.8769 58.4388 49.6543 58.2162 49.6543 57.9415V51.9006C49.6543 51.6259 49.8769 51.4033 50.1516 51.4033H54.507C54.7817 51.4033 55.0043 51.626 55.0043 51.9006V57.9415C55.0044 58.2162 54.7817 58.4388 54.507 58.4388Z" fill="#503837"/>
<path d="M54.507 59.1428H50.1516C49.4893 59.1428 48.9504 58.6039 48.9504 57.9416V51.9007C48.9504 51.2384 49.4893 50.6995 50.1516 50.6995H54.507C55.1694 50.6995 55.7083 51.2384 55.7083 51.9007V57.9416C55.7083 58.6039 55.1694 59.1428 54.507 59.1428ZM50.3582 57.7348H54.3002V52.1073H50.3582V57.7348Z" fill="white"/>
<path d="M40.5651 66.4561V51.2019C40.5651 50.529 41.1105 49.9836 41.7833 49.9836H45.1662C45.839 49.9836 46.3845 50.529 46.3845 51.2019V66.4561H40.5651Z" fill="#816965"/>
<path d="M47.1049 66.4561H45.6638V51.6173C45.6638 51.1152 45.253 50.7042 44.7508 50.7042H42.1986C41.6943 50.7042 41.2855 51.113 41.2855 51.6173V66.4561H39.8445V50.6643C39.8445 49.8905 40.4718 49.2632 41.2457 49.2632H45.7037C46.4775 49.2632 47.1048 49.8905 47.1048 50.6643V66.4561H47.1049Z" fill="#503837"/>
<path d="M42.4425 56.3664C42.8054 56.3664 43.0995 56.0723 43.0995 55.7095C43.0995 55.3466 42.8054 55.0525 42.4425 55.0525C42.0797 55.0525 41.7856 55.3466 41.7856 55.7095C41.7856 56.0723 42.0797 56.3664 42.4425 56.3664Z" fill="white"/>
<path d="M57.4368 62.6117H29.5124V66.4559H57.4368V62.6117Z" fill="#654E48"/>
<path d="M29.2066 64.9539C29.2066 65.4844 29.1063 65.9907 28.923 66.456H21.2836C21.1003 65.9907 21 65.4844 21 64.9539C21 64.4373 21.0952 63.9434 21.2697 63.4884C21.8595 61.9453 23.3536 60.8506 25.1034 60.8506C26.8532 60.8506 28.3472 61.9453 28.9371 63.4884C29.1114 63.9435 29.2066 64.4374 29.2066 64.9539Z" fill="url(#paint13_linear_15709_4)"/>
<path d="M31.8526 65.3665C31.8526 65.7513 31.7798 66.1185 31.6469 66.4561H26.1052C25.9722 66.1186 25.8995 65.7513 25.8995 65.3665C25.8995 64.9917 25.9686 64.6335 26.0951 64.3034C26.523 63.184 27.6068 62.3899 28.8761 62.3899C30.1455 62.3899 31.2293 63.184 31.6572 64.3034C31.7835 64.6334 31.8526 64.9917 31.8526 65.3665Z" fill="url(#paint14_linear_15709_4)"/>
<path d="M65.9455 64.7051C65.9455 65.3235 65.8285 65.9137 65.6149 66.4561H56.7097C56.4962 65.9138 56.3791 65.3235 56.3791 64.7051C56.3791 64.1029 56.4902 63.5273 56.6935 62.9968C57.3811 61.198 59.1226 59.9219 61.1623 59.9219C63.202 59.9219 64.9435 61.198 65.6311 62.9968C65.8344 63.5273 65.9455 64.1029 65.9455 64.7051Z" fill="url(#paint15_linear_15709_4)"/>
<path d="M57.4358 42.3937V57.2759L39.4744 39.3136C39.1218 39.1013 38.8848 38.7161 38.8848 38.2755V34.901C38.8848 32.3717 40.9435 30.314 43.4728 30.314C44.8423 30.314 46.0734 30.9185 46.915 31.8729L57.4358 42.3937Z" fill="url(#paint16_linear_15709_4)"/>
<path d="M55.3894 40.9458H31.9179C31.3582 40.9458 30.9029 41.4011 30.9029 41.9608V46.467H31.6079V41.9608C31.6079 41.7898 31.747 41.6508 31.9179 41.6508H33.3219V46.4669H34.0269V41.6508H36.1213V46.4669H36.8263V41.6508H38.9208V46.4669H39.6258V41.6508H41.7202V46.4669H42.4252V41.6508H44.5197V46.4669H45.2247V41.6508H47.3192V46.4669H48.0242V41.6508H50.1186V46.4669H50.8236V41.6508H52.9181V46.4669H53.6231V41.6508H55.3891C55.56 41.6508 55.6991 41.7898 55.6991 41.9608V46.467H56.4041V41.9608C56.4044 41.4011 55.9491 40.9458 55.3894 40.9458Z" fill="#654E48"/>
<path d="M58.0145 45.7355V47.9959C58.0145 48.3318 57.7422 48.6042 57.4063 48.6042H29.5392C29.2032 48.6042 28.9309 48.3318 28.9309 47.9959V45.7355C28.9309 45.3995 29.2032 45.1272 29.5392 45.1272H57.4063C57.7422 45.1272 58.0145 45.3995 58.0145 45.7355Z" fill="url(#paint17_linear_15709_4)"/>
<path d="M62.435 40.8248L44.4056 22.7893C43.8917 22.2755 43.0584 22.2755 42.5445 22.7893L24.5105 40.8233C24.1743 41.1595 24.1743 41.7046 24.5105 42.0408L25.279 42.8093C25.6153 43.1455 26.1603 43.1455 26.4965 42.8093L43.2299 26.0759C43.3652 25.9406 43.5846 25.9406 43.7199 26.0759L60.4489 42.8107C60.7851 43.1469 61.3302 43.1469 61.6664 42.8107L62.4349 42.0422C62.7712 41.7061 62.7712 41.161 62.435 40.8248Z" fill="url(#paint18_linear_15709_4)"/>
<path d="M44.4055 22.7893C44.1486 22.5324 43.8119 22.4039 43.475 22.4039V25.9746C43.5637 25.9746 43.6524 26.0084 43.72 26.076L60.449 42.8109C60.7852 43.1471 61.3303 43.1471 61.6665 42.8109L62.435 42.0423C62.7712 41.7061 62.7712 41.161 62.435 40.8248L44.4055 22.7893Z" fill="url(#paint19_linear_15709_4)"/>
<path d="M46.8466 38.7568H40.099C39.833 38.7568 39.6174 38.5411 39.6174 38.2752V34.9013C39.6174 32.772 41.3436 31.0458 43.4729 31.0458C45.6023 31.0458 47.3285 32.772 47.3285 34.9013V38.2752C47.3283 38.5411 47.1126 38.7568 46.8466 38.7568Z" fill="#654E48"/>
<path d="M43.4728 30.3137C40.9432 30.3137 38.8853 32.3717 38.8853 34.9012V38.275C38.8853 38.9443 39.4297 39.4887 40.099 39.4887H46.8466C47.5159 39.4887 48.0604 38.9443 48.0604 38.275V34.9012C48.0603 32.3716 46.0024 30.3137 43.4728 30.3137ZM46.5709 34.5109H44.2049V31.8653C45.4516 32.1661 46.4087 33.2163 46.5709 34.5109ZM42.7406 31.8653V34.5109H40.3746C40.5368 33.2163 41.4938 32.1661 42.7406 31.8653ZM40.3493 35.975H42.7406V38.0248H40.3493V35.975ZM44.2049 38.0248V35.975H46.5962V38.0248H44.2049Z" fill="white"/>
<defs>
<linearGradient id="paint0_linear_15709_4" x1="23.2445" y1="24.8202" x2="40.5359" y2="30.8359" gradientUnits="userSpaceOnUse">
<stop stop-color="#E2EDF2"/>
<stop offset="1" stop-color="#9FC7E2"/>
</linearGradient>
<linearGradient id="paint1_linear_15709_4" x1="24.9081" y1="23.3036" x2="27.454" y2="24.1896" gradientUnits="userSpaceOnUse">
<stop stop-color="#E2EDF2"/>
<stop offset="1" stop-color="#9FC7E2"/>
</linearGradient>
<linearGradient id="paint2_linear_15709_4" x1="30.9019" y1="31.6132" x2="32.6786" y2="33.389" gradientUnits="userSpaceOnUse">
<stop stop-color="#816965"/>
<stop offset="1" stop-color="#654E48"/>
</linearGradient>
<linearGradient id="paint3_linear_15709_4" x1="27.6976" y1="54.6047" x2="27.6976" y2="66.6569" gradientUnits="userSpaceOnUse">
<stop stop-color="#FFE7A5"/>
<stop offset="0.966" stop-color="#FFBF5C"/>
</linearGradient>
<linearGradient id="paint4_linear_15709_4" x1="27.5941" y1="51.4831" x2="27.5941" y2="55.8665" gradientUnits="userSpaceOnUse">
<stop stop-color="#FF5D00"/>
<stop offset="1" stop-color="#D54003"/>
</linearGradient>
<linearGradient id="paint5_linear_15709_4" x1="59.2469" y1="54.6047" x2="59.2469" y2="66.6569" gradientUnits="userSpaceOnUse">
<stop stop-color="#FFE7A5"/>
<stop offset="0.966" stop-color="#FFBF5C"/>
</linearGradient>
<linearGradient id="paint6_linear_15709_4" x1="59.0001" y1="64.0721" x2="48.0381" y2="54.3033" gradientUnits="userSpaceOnUse">
<stop stop-color="#FF5D00" stop-opacity="0"/>
<stop offset="1" stop-color="#D54003"/>
</linearGradient>
<linearGradient id="paint7_linear_15709_4" x1="59.3505" y1="51.4831" x2="59.3505" y2="55.8665" gradientUnits="userSpaceOnUse">
<stop stop-color="#FF5D00"/>
<stop offset="1" stop-color="#D54003"/>
</linearGradient>
<linearGradient id="paint8_linear_15709_4" x1="43.474" y1="45.8633" x2="43.474" y2="75.4288" gradientUnits="userSpaceOnUse">
<stop stop-color="#FFE7A5"/>
<stop offset="0.966" stop-color="#FFBF5C"/>
<stop offset="1" stop-color="#DB9E36"/>
</linearGradient>
<linearGradient id="paint9_linear_15709_4" x1="40.4565" y1="36.1642" x2="32.3735" y2="28.0812" gradientUnits="userSpaceOnUse">
<stop stop-color="#FF5D00" stop-opacity="0"/>
<stop offset="1" stop-color="#D54003"/>
</linearGradient>
<linearGradient id="paint10_linear_15709_4" x1="44.5251" y1="53.6309" x2="41.3623" y2="33.9989" gradientUnits="userSpaceOnUse">
<stop stop-color="#FF5D00" stop-opacity="0"/>
<stop offset="1" stop-color="#D54003"/>
</linearGradient>
<linearGradient id="paint11_linear_15709_4" x1="40.2266" y1="60.361" x2="27.6298" y2="47.7641" gradientUnits="userSpaceOnUse">
<stop stop-color="#FF5D00" stop-opacity="0"/>
<stop offset="1" stop-color="#D54003"/>
</linearGradient>
<linearGradient id="paint12_linear_15709_4" x1="55.6992" y1="58.2916" x2="47.6338" y2="50.2262" gradientUnits="userSpaceOnUse">
<stop stop-color="#FF5D00" stop-opacity="0"/>
<stop offset="1" stop-color="#D54003"/>
</linearGradient>
<linearGradient id="paint13_linear_15709_4" x1="22.7892" y1="62.3995" x2="27.8526" y2="67.4623" gradientUnits="userSpaceOnUse">
<stop stop-color="#9EB644"/>
<stop offset="1" stop-color="#738611"/>
</linearGradient>
<linearGradient id="paint14_linear_15709_4" x1="27.1972" y1="63.5131" x2="30.8703" y2="67.1863" gradientUnits="userSpaceOnUse">
<stop stop-color="#9EB644"/>
<stop offset="1" stop-color="#738611"/>
</linearGradient>
<linearGradient id="paint15_linear_15709_4" x1="58.4642" y1="61.7271" x2="64.3661" y2="67.6298" gradientUnits="userSpaceOnUse">
<stop stop-color="#9EB644"/>
<stop offset="1" stop-color="#738611"/>
</linearGradient>
<linearGradient id="paint16_linear_15709_4" x1="49.8878" y1="42.3066" x2="36.9746" y2="29.3934" gradientUnits="userSpaceOnUse">
<stop stop-color="#FF5D00" stop-opacity="0"/>
<stop offset="1" stop-color="#D54003"/>
</linearGradient>
<linearGradient id="paint17_linear_15709_4" x1="43.4723" y1="45.4976" x2="43.4723" y2="50.1102" gradientUnits="userSpaceOnUse">
<stop stop-color="#FF5D00"/>
<stop offset="1" stop-color="#D54003"/>
</linearGradient>
<linearGradient id="paint18_linear_15709_4" x1="43.4723" y1="34.6034" x2="43.4723" y2="50.2626" gradientUnits="userSpaceOnUse">
<stop stop-color="#FF5D00"/>
<stop offset="1" stop-color="#D54003"/>
</linearGradient>
<linearGradient id="paint19_linear_15709_4" x1="56.9408" y1="37.3836" x2="47.476" y2="27.919" gradientUnits="userSpaceOnUse">
<stop stop-color="#FF5D00" stop-opacity="0"/>
<stop offset="1" stop-color="#D54003"/>
</linearGradient>
</defs>
</svg>
